# xmcd
#
# Track frame offsets: 
#        150
#        18338
#        34790
#        50117
#        68682
#        82191
#        110883
#        117859
#        141940
#        153250
#        177533
#
# Disc length: 2623 seconds
#
# Revision: 0
# Processed by: cddbd v1.5.2PL0 Copyright (c) Steve Scherf et al.
# Submitted via: ExactAudioCopy v1.0b4
#
DISCID=9c0a3d0b
DTITLE=Floyd Lee (feat. Elliott Sharp and Kenny Aaronson) - Blues On 30t
DTITLE=h Street
DYEAR=2016
DGENRE=Blues
TTITLE0=She Got The Nerve
TTITLE1=Going Up
TTITLE2=Bright Lights Big City
TTITLE3=Crack Alley Blues
TTITLE4=Bullfrog Blues
TTITLE5=Blues In New York City
TTITLE6=Insurance Blues
TTITLE7=Come Back Baby
TTITLE8=I'll Be There
TTITLE9=Nobody Nobody
TTITLE10=Better Luck
EXTD=
EXTT0=
EXTT1=
EXTT2=
EXTT3=
EXTT4=
EXTT5=
EXTT6=
EXTT7=
EXTT8=
EXTT9=
EXTT10=
PLAYORDER=
